<svg width="17" height="17" viewBox="0 0 17 17" fill="none" xmlns="http://www.w3.org/2000/svg">
<path d="M10.625 0.708336H6.375V2.125H10.625V0.708336ZM7.79167 9.91667H9.20833V5.66667H7.79167V9.91667ZM13.4796 5.23459L14.4854 4.22875C14.1808 3.8675 13.8479 3.5275 13.4867 3.23L12.4808 4.23584C11.3829 3.3575 10.0017 2.83334 8.5 2.83334C4.97958 2.83334 2.125 5.68792 2.125 9.20834C2.125 12.7288 4.9725 15.5833 8.5 15.5833C12.0275 15.5833 14.875 12.7288 14.875 9.20834C14.875 7.70667 14.3508 6.32542 13.4796 5.23459ZM8.5 14.1667C5.75875 14.1667 3.54167 11.9496 3.54167 9.20834C3.54167 6.46709 5.75875 4.25 8.5 4.25C11.2413 4.25 13.4583 6.46709 13.4583 9.20834C13.4583 11.9496 11.2413 14.1667 8.5 14.1667Z" fill="#6245E7"/>
</svg>
