<svg width="24" height="26" viewBox="0 0 24 26" fill="none" xmlns="http://www.w3.org/2000/svg">
<path d="M12 23.5537C16.97 23.5537 21 19.2391 21 13.9181C16.03 13.9181 12 18.2327 12 23.5537ZM5.6 10.9739C5.6 12.4513 6.72 13.6504 8.1 13.6504C8.63 13.6504 9.11 13.4791 9.52 13.1793L9.5 13.3828C9.5 14.8602 10.62 16.0593 12 16.0593C13.38 16.0593 14.5 14.8602 14.5 13.3828L14.48 13.1793C14.88 13.4791 15.37 13.6504 15.9 13.6504C17.28 13.6504 18.4 12.4513 18.4 10.9739C18.4 9.90324 17.81 8.99322 16.97 8.56497C17.81 8.13672 18.4 7.22669 18.4 6.15607C18.4 4.67861 17.28 3.47952 15.9 3.47952C15.37 3.47952 14.89 3.65082 14.48 3.95059L14.5 3.74717C14.5 2.26971 13.38 1.07062 12 1.07062C10.62 1.07062 9.5 2.26971 9.5 3.74717L9.52 3.95059C9.12 3.65082 8.63 3.47952 8.1 3.47952C6.72 3.47952 5.6 4.67861 5.6 6.15607C5.6 7.22669 6.19 8.13672 7.03 8.56497C6.19 8.99322 5.6 9.90324 5.6 10.9739ZM12 5.88841C13.38 5.88841 14.5 7.08751 14.5 8.56497C14.5 10.0424 13.38 11.2415 12 11.2415C10.62 11.2415 9.5 10.0424 9.5 8.56497C9.5 7.08751 10.62 5.88841 12 5.88841ZM3 13.9181C3 19.2391 7.03 23.5537 12 23.5537C12 18.2327 7.97 13.9181 3 13.9181Z" fill="black"/>
</svg>
