<svg width="24" height="27" viewBox="0 0 24 27" fill="none" xmlns="http://www.w3.org/2000/svg">
<path d="M21.6889 4.78993C21.4667 4.07559 20.8444 3.56708 20.1111 3.56708H7.88889C7.15556 3.56708 6.54444 4.07559 6.31111 4.78993L4 12.0423V21.7283C4 22.3942 4.5 22.939 5.11111 22.939H6.22222C6.83333 22.939 7.33333 22.3942 7.33333 21.7283V20.5175H20.6667V21.7283C20.6667 22.3942 21.1667 22.939 21.7778 22.939H22.8889C23.5 22.939 24 22.3942 24 21.7283V12.0423L21.6889 4.78993ZM7.88889 16.8853C6.96667 16.8853 6.22222 16.0741 6.22222 15.0692C6.22222 14.0643 6.96667 13.2531 7.88889 13.2531C8.81111 13.2531 9.55556 14.0643 9.55556 15.0692C9.55556 16.0741 8.81111 16.8853 7.88889 16.8853ZM20.1111 16.8853C19.1889 16.8853 18.4444 16.0741 18.4444 15.0692C18.4444 14.0643 19.1889 13.2531 20.1111 13.2531C21.0333 13.2531 21.7778 14.0643 21.7778 15.0692C21.7778 16.0741 21.0333 16.8853 20.1111 16.8853ZM6.22222 10.8316L7.88889 5.3832H20.1111L21.7778 10.8316H6.22222Z" fill="black"/>
</svg>
