<svg width="29" height="29" viewBox="0 0 29 29" fill="none" xmlns="http://www.w3.org/2000/svg">
<path d="M25.375 12.2283H17.1825L20.4933 8.82083C17.1946 5.55833 11.8537 5.4375 8.555 8.7C5.25624 11.9746 5.25624 17.255 8.555 20.5296C11.8537 23.8042 17.1946 23.8042 20.4933 20.5296C22.1367 18.9104 22.9583 17.0133 22.9583 14.6208H25.375C25.375 17.0133 24.3117 20.1187 22.185 22.2213C17.9437 26.4263 11.0562 26.4263 6.815 22.2213C2.58583 18.0283 2.54958 11.2133 6.79083 7.02042C11.0321 2.8275 17.835 2.8275 22.0762 7.02042L25.375 3.625V12.2283ZM15.1042 9.66667V14.8021L19.3333 17.3154L18.4633 18.7775L13.2917 15.7083V9.66667H15.1042Z" fill="#E6E9EF"/>
</svg>
