<svg width="29" height="29" viewBox="0 0 29 29" fill="none" xmlns="http://www.w3.org/2000/svg">
<path d="M14.4998 2.41669C7.82984 2.41669 2.4165 7.83002 2.4165 14.5C2.4165 21.17 7.82984 26.5834 14.4998 26.5834C21.1698 26.5834 26.5832 21.17 26.5832 14.5C26.5832 7.83002 21.1698 2.41669 14.4998 2.41669ZM14.4998 6.04169C16.5057 6.04169 18.1248 7.66085 18.1248 9.66669C18.1248 11.6725 16.5057 13.2917 14.4998 13.2917C12.494 13.2917 10.8748 11.6725 10.8748 9.66669C10.8748 7.66085 12.494 6.04169 14.4998 6.04169ZM14.4998 23.2C11.479 23.2 8.80859 21.6534 7.24984 19.3092C7.28609 16.9046 12.0832 15.5875 14.4998 15.5875C16.9044 15.5875 21.7136 16.9046 21.7498 19.3092C20.1911 21.6534 17.5207 23.2 14.4998 23.2Z" fill="#69F2A9"/>
</svg>
