<svg width="23" height="22" viewBox="0 0 23 22" fill="none" xmlns="http://www.w3.org/2000/svg">
<path d="M21.7895 18.3333V19.5556C21.7895 20.9 20.7 22 19.3684 22H2.42105C1.07737 22 0 20.9 0 19.5556V2.44444C0 1.1 1.07737 0 2.42105 0H19.3684C20.7 0 21.7895 1.1 21.7895 2.44444V3.66667H10.8947C9.55105 3.66667 8.47368 4.76667 8.47368 6.11111V15.8889C8.47368 17.2333 9.55105 18.3333 10.8947 18.3333H21.7895ZM10.8947 15.8889H23V6.11111H10.8947V15.8889ZM15.7368 12.8333C14.7321 12.8333 13.9211 12.0144 13.9211 11C13.9211 9.98556 14.7321 9.16667 15.7368 9.16667C16.7416 9.16667 17.5526 9.98556 17.5526 11C17.5526 12.0144 16.7416 12.8333 15.7368 12.8333Z" fill="#E6E9EF"/>
</svg>
