<svg width="45" height="45" viewBox="0 0 45 45" fill="none" xmlns="http://www.w3.org/2000/svg">
<path d="M14.1 40.275C7.96875 37.3875 3.58125 31.425 2.90625 24.375H0.09375C1.05 35.925 10.7062 45 22.5 45L23.7375 44.9437L16.5938 37.8L14.1 40.275ZM15.7687 28.05C15.4125 28.05 15.075 27.9937 14.7937 27.9C14.4937 27.7875 14.25 27.6562 14.0437 27.45C13.8375 27.2625 13.6687 27.0375 13.5562 26.7563C13.4437 26.4938 13.3875 26.1938 13.3875 25.875H10.95C10.95 26.55 11.0812 27.15 11.3437 27.6562C11.6062 28.1625 11.9625 28.5938 12.3937 28.95C12.8437 29.2875 13.35 29.55 13.9312 29.7188C14.4937 29.9062 15.0937 30 15.7312 30C16.425 30 17.0812 29.9062 17.6625 29.7188C18.2625 29.5312 18.7875 29.25 19.2187 28.8937C19.65 28.5375 20.0062 28.0875 20.25 27.5437C20.4937 27 20.625 26.4 20.625 25.725C20.625 25.3687 20.5875 25.0125 20.4937 24.675C20.4 24.3375 20.2687 24.0187 20.0625 23.7188C19.875 23.4187 19.6125 23.1562 19.3125 22.9125C18.9937 22.6688 18.6187 22.4812 18.1687 22.3312C18.5437 22.1625 18.8625 21.9562 19.1437 21.7125C19.425 21.4688 19.65 21.2062 19.8375 20.925C20.025 20.6437 20.1562 20.3625 20.25 20.0625C20.3437 19.7625 20.3812 19.4625 20.3812 19.1625C20.3812 18.4875 20.2687 17.8875 20.0437 17.3625C19.8187 16.8375 19.5 16.4062 19.0875 16.0687C18.7125 15.7125 18.2062 15.45 17.6437 15.2625C17.0625 15.0938 16.425 15 15.7312 15C15.0562 15 14.4375 15.0938 13.8562 15.3C13.2937 15.5062 12.7875 15.7875 12.375 16.1437C11.9812 16.5 11.6625 16.9125 11.4187 17.4C11.1937 17.8875 11.0812 18.4125 11.0812 18.9937H13.5187C13.5187 18.675 13.575 18.3938 13.6875 18.15C13.8 17.9062 13.95 17.6812 14.1562 17.5125C14.3625 17.3438 14.5875 17.1938 14.8687 17.1C15.15 17.0063 15.4312 16.95 15.7687 16.95C16.5187 16.95 17.0812 17.1375 17.4375 17.5312C17.7937 17.9062 17.9812 18.45 17.9812 19.1437C17.9812 19.4813 17.925 19.7812 17.8312 20.0625C17.7375 20.3438 17.5687 20.5687 17.3625 20.7562C17.1562 20.9438 16.8937 21.0938 16.5938 21.2063C16.2937 21.3188 15.9187 21.375 15.5062 21.375H14.0625V23.3063H15.5062C15.9187 23.3063 16.2937 23.3438 16.6312 23.4375C16.9687 23.5312 17.25 23.6812 17.475 23.8687C17.7 24.075 17.8875 24.3188 18.0187 24.6187C18.15 24.9188 18.2062 25.275 18.2062 25.6875C18.2062 26.4562 17.9812 27.0375 17.55 27.4312C17.1187 27.8625 16.5187 28.05 15.7687 28.05ZM31.8 16.95C31.2 16.3312 30.4875 15.8438 29.6625 15.5063C28.8562 15.1688 27.9375 15 26.925 15H22.5V30H26.8125C27.8437 30 28.8 29.8312 29.6437 29.4937C30.4875 29.1562 31.2187 28.6875 31.8187 28.0688C32.4187 27.45 32.8875 26.7 33.2062 25.8375C33.525 24.9562 33.6937 23.9813 33.6937 22.8937V22.1438C33.6937 21.0563 33.525 20.0812 33.2062 19.2C32.8687 18.3188 32.4 17.5688 31.8 16.95ZM31.0687 22.875C31.0687 23.6625 30.975 24.3563 30.8062 24.9937C30.6187 25.6125 30.3562 26.1562 30 26.5875C29.6437 27.0188 29.1937 27.3563 28.6687 27.5812C28.125 27.8062 27.5062 27.9188 26.8125 27.9188H25.1062V17.1H26.925C28.275 17.1 29.3062 17.5312 30 18.3938C30.7125 19.2563 31.0687 20.4937 31.0687 22.125V22.875ZM22.5 0L21.2625 0.05625L28.4062 7.2L30.9 4.70625C37.0312 7.6125 41.4188 13.5562 42.075 20.6062H44.8875C43.95 9.075 34.2937 0 22.5 0Z" fill="#69F2A9"/>
</svg>
