<svg width="37" height="40" viewBox="0 0 37 40" fill="none" xmlns="http://www.w3.org/2000/svg">
<path d="M5.23877 40L10.4671 36.1564V13.4422L5.23877 17.2858V40Z" fill="url(#paint0_linear)"/>
<path d="M36.6355 13.4422V21.1294L18.3177 34.5716V26.8896L36.6355 13.4422Z" fill="url(#paint1_linear)"/>
<path d="M5.23889 17.2858L0.00524902 13.4422V36.1564L5.23889 40V24.9678L18.3177 34.5716V26.8896L5.23889 17.2858Z" fill="url(#paint2_linear)"/>
<path d="M18.3178 0L0 13.4474L18.3178 26.8948L36.6355 13.4474L18.3178 0ZM18.3178 19.2076L10.4673 13.4474L18.3178 7.68725L26.1682 13.4474L18.3178 19.2076Z" fill="url(#paint3_linear)"/>
<path d="M15.7011 17.2858L18.3179 15.364V7.68198L10.4674 13.4421L15.7011 17.2858Z" fill="url(#paint4_linear)"/>
<path d="M18.3177 15.364V7.68198L26.1682 13.4421L20.9346 17.2858L18.3177 15.364Z" fill="url(#paint5_linear)"/>
<defs>
<linearGradient id="paint0_linear" x1="5.23635" y1="26.7224" x2="10.4692" y2="26.7224" gradientUnits="userSpaceOnUse">
<stop stop-color="#FF00AD"/>
<stop offset="0.2805" stop-color="#F800C0"/>
<stop offset="0.8459" stop-color="#E600F1"/>
<stop offset="1" stop-color="#E100FF"/>
</linearGradient>
<linearGradient id="paint1_linear" x1="18.3187" y1="24.0091" x2="36.6338" y2="24.0091" gradientUnits="userSpaceOnUse">
<stop stop-color="#FF00AD"/>
<stop offset="0.2805" stop-color="#F800C0"/>
<stop offset="0.8459" stop-color="#E600F1"/>
<stop offset="1" stop-color="#E100FF"/>
</linearGradient>
<linearGradient id="paint2_linear" x1="0.00356415" y1="26.7224" x2="18.3187" y2="26.7224" gradientUnits="userSpaceOnUse">
<stop stop-color="#6245E7"/>
<stop offset="1" stop-color="#6C00FF"/>
</linearGradient>
<linearGradient id="paint3_linear" x1="0.00358036" y1="13.444" x2="36.6338" y2="13.444" gradientUnits="userSpaceOnUse">
<stop stop-color="#37E07C"/>
<stop offset="1" stop-color="#69F2A9"/>
</linearGradient>
<linearGradient id="paint4_linear" x1="10.4695" y1="12.4836" x2="18.3188" y2="12.4836" gradientUnits="userSpaceOnUse">
<stop stop-color="#FF00AD"/>
<stop offset="0.2805" stop-color="#F800C0"/>
<stop offset="0.8459" stop-color="#E600F1"/>
<stop offset="1" stop-color="#E100FF"/>
</linearGradient>
<linearGradient id="paint5_linear" x1="18.3187" y1="12.4836" x2="26.1681" y2="12.4836" gradientUnits="userSpaceOnUse">
<stop stop-color="#6245E7"/>
<stop offset="1" stop-color="#6C00FF"/>
</linearGradient>
</defs>
</svg>
